<svg width="117" height="60" viewBox="0 0 117 60" fill="none" xmlns="http://www.w3.org/2000/svg">
<g clip-path="url(#clip0)">
<path d="M115.19 31.37C114.339 30.3533 113.576 29.2661 112.91 28.12C116.12 23.3 117.14 18.03 113.1 12.82C112.86 11.89 113.52 9.87999 111.81 10.11L109.62 10.64C103.62 14.83 100.05 18.16 98.09 20.93C97.2971 21.9863 96.6823 23.1652 96.27 24.42C100.2 23.09 105.08 19.98 110.38 15.69C112.55 18.39 112.23 22.57 110.18 27.87C110.122 28.0131 110.118 28.1726 110.17 28.3183C110.221 28.464 110.325 28.5856 110.46 28.66C113.38 32.37 114.46 35.56 113.04 38.8C111.36 42.54 110.14 46.94 111.1 49.24C111.17 49.3916 111.286 49.5175 111.431 49.6C111.576 49.6825 111.744 49.7175 111.91 49.7C112.21 49.64 112.02 49.46 112.07 49.44C111.95 47.82 113.18 44.44 114.6 42.28L115.05 41.68C115.05 41.62 115.11 41.57 115.15 41.54C115.184 41.498 115.211 41.4507 115.23 41.4C117.27 38.34 117.2 34.93 115.19 31.37Z" fill="#0054A4"/>
<path d="M92.24 23C74.09 -6.65999 44.18 -8.24999 25.6 21.85C25.06 22.44 24.55 22.55 24.01 22.09C22.2328 19.5281 20.051 17.272 17.55 15.41C14.6011 13.3425 12.0045 10.8135 9.86001 7.92001C9.65463 7.87364 9.44193 7.86987 9.23504 7.90895C9.02814 7.94803 8.83146 8.02911 8.65715 8.1472C8.48283 8.26529 8.33458 8.41786 8.22155 8.5955C8.10852 8.77315 8.03313 8.97208 8.00001 9.18001C9.15587 11.4039 10.8813 13.2811 13 14.62C16.57 16.86 20 20.79 23.31 25.48C24.01 26.4 24.74 26.7 25.44 26.48C27.8553 22.7185 30.5601 19.151 33.53 15.81C35.3504 14.0034 37.3623 12.4006 39.53 11.03L39.66 11.21C40.941 13.026 42.524 14.609 44.34 15.89C44.3212 15.9325 44.2977 15.9727 44.27 16.01C42.2131 19.8886 40.9165 24.1246 40.45 28.49H40.3C34.76 29.29 33.02 28.82 27.74 29.26C27.1 29.45 26.83 29.66 26.74 29.87C26.1 30.36 27.19 30.87 28.12 31.14C31.87 32.14 34.21 32.14 39.63 32.85C39.8655 32.8658 40.0995 32.8992 40.33 32.95C40.6689 37.9796 42.1975 42.8568 44.79 47.18C44.8466 47.3011 44.9171 47.4152 45 47.52C44.31 48.09 43.64 48.72 43 49.4C43.0109 49.3947 43.0229 49.3919 43.035 49.3919C43.0471 49.3919 43.0591 49.3947 43.07 49.4C43.0118 49.4519 42.9583 49.5088 42.91 49.57C38.9512 47.43 35.318 44.7362 32.12 41.57C31.4837 41.0224 30.9071 40.409 30.4 39.74C24 29.72 17.26 21 9.21001 14.16L4.69001 10.84L4.50001 11.09L4.35001 16.78C-0.129986 23.54 -2.40999 28.78 3.81001 36.46C2.12001 40.86 2.24001 45.23 4.28001 50.92C4.06001 53.35 4.67001 54.13 6.07001 53.43C13.07 49.34 13.49 43 20.86 38.2C21.1493 37.953 21.3989 37.6629 21.6 37.34C22.47 36.18 22.82 34.43 21.6 34.15C17.8 33.28 13.94 36.15 9.65001 37.76C9.73001 37.76 9.80001 37.76 9.87001 37.84C9.7396 37.9033 9.6061 37.9601 9.47001 38.01C12 39.44 15.2 37 18 37.34C14.62 39.81 11.1 42.34 8.89001 45.65C8.89001 45.7 8.83001 45.72 8.82001 45.76C8.80009 45.8149 8.7655 45.8633 8.72001 45.9C8.37001 46.42 8.15001 46.9 7.87001 47.34C7.72967 47.5574 7.53715 47.7361 7.31001 47.86C4.63001 44.52 5.40001 40.06 6.76001 36.17C7.05098 35.6607 7.22364 35.0925 7.26518 34.5074C7.30673 33.9223 7.2161 33.3353 7.00001 32.79C3.68001 28.92 3.41001 27.65 4.00001 25.94C5.12919 24.9053 6.13579 23.7444 7.00001 22.48C7.94769 21.1298 8.69853 19.6516 9.23001 18.09C14.9788 23.5326 19.9853 29.7091 24.12 36.46C40.74 63.65 70.59 69.58 93.34 36.96C97.61 42.4 98.46 43.28 101.34 45.18C101.59 45.26 101.75 45.18 101.53 44.91C98.93 41.21 96.42 37.48 94.07 33.63C93.44 32.56 93.3 32.23 92.59 32.63C92.532 32.7012 92.4818 32.7783 92.44 32.86C91.57 34.34 90.66 35.74 89.73 37.07C85.9288 42.5719 80.8818 47.0981 75 50.28C74.19 49.43 73.38 48.67 72.54 47.93C72.5706 47.8963 72.5974 47.8595 72.62 47.82C72.6846 47.7495 72.7415 47.6724 72.79 47.59C75.352 43.1952 76.9252 38.2948 77.4 33.23H77.47C82.3 32.37 85.27 32.23 87.54 31.85C88.0225 31.6739 88.4797 31.4352 88.9 31.14C88.8542 31.1087 88.8035 31.085 88.75 31.07L89.07 30.86C88.46 30.68 88.24 30.35 87.62 30.31C85.34 29.98 81.11 29.91 77.47 29.63C77.2553 24.9379 76.1097 20.3353 74.1 16.09C74.1081 16.0471 74.1081 16.003 74.1 15.96C75.5022 14.9688 76.7841 13.8177 77.92 12.53C77.99 12.46 78.06 12.36 78.13 12.28C83.2008 15.7759 87.567 20.1964 91 25.31C96.9 34.45 102.73 43.24 109.36 50.56L109.6 45.88C105.78 44.71 99.44 35.32 92.24 23ZM42.4 9.29001C44.869 8.0128 47.4947 7.06473 50.21 6.47001C48.5627 8.07833 47.1911 9.94658 46.15 12C44.7474 11.3293 43.4771 10.4113 42.4 9.29001ZM44.55 50.46C45.13 50.07 45.68 49.69 46.23 49.36C47.3421 50.6336 48.6481 51.7236 50.1 52.59C48.1995 52.0195 46.3443 51.3075 44.55 50.46ZM49.87 49.06C49.5555 48.654 49.265 48.2299 49 47.79C51.0728 46.6818 53.3066 45.9057 55.62 45.49H55.84L56.28 52.61C55.0295 52.4732 53.8187 52.0888 52.7182 51.4794C51.6177 50.8699 50.6495 50.0474 49.87 49.06ZM56.3 27V27.57C52.7614 27.4685 49.2199 27.5519 45.69 27.82L45.14 27.88V27.24C45.316 23.9176 45.9417 20.6343 47 17.48C49.8968 18.9961 53.0636 19.9272 56.32 20.22H56.47L56.3 27ZM67 9.13001C67.9817 10.3293 68.7619 11.6803 69.31 13.13C66.6401 14.2032 63.8054 14.8087 60.93 14.92L60.79 6.40001C63.1011 6.6131 65.2805 7.57117 67 9.13001ZM62 34.73C65.34 34.73 68.63 34.65 71.92 34.55V35.04C71.7955 38.689 71.0058 42.2846 69.59 45.65C67.1222 43.9196 64.3183 42.7272 61.36 42.15L61.41 41.55L62 34.74V34.73ZM72.72 51.37C70.4239 52.3618 68.0215 53.0865 65.56 53.53C67.597 52.7923 69.4304 51.5826 70.91 50C71.5597 50.392 72.1663 50.8512 72.72 51.37ZM71.8 11.76C70.99 10.4 70.05 9.07001 69.09 7.76001C70.8083 8.36188 72.4796 9.09055 74.09 9.94001C73.3913 10.6238 72.6239 11.2337 71.8 11.76Z" fill="#0054A4"/>
<path d="M67.76 48.34C65.7371 46.9658 63.4232 46.0792 61 45.75L60.38 52.59C60.4616 52.6396 60.5523 52.6723 60.6469 52.6861C60.7414 52.6998 60.8377 52.6943 60.93 52.67H61.11C61.47 52.61 61.82 52.57 62.11 52.48C62.2498 52.4472 62.3869 52.4038 62.52 52.35C62.6929 52.3106 62.8633 52.2605 63.03 52.2C65.0001 51.4892 66.6687 50.1275 67.76 48.34Z" fill="#0054A4"/>
<path d="M50.85 9.57C49.9886 10.7703 49.2133 12.0301 48.53 13.34C51.3293 14.3206 54.2499 14.9128 57.21 15.1V14.63L57.57 6.38C55.4694 6.44767 53.4435 7.17545 51.78 8.46C51.5585 8.63774 51.3603 8.84269 51.19 9.07C51.1 9.24 51 9.42 50.85 9.57Z" fill="#EF4135"/>
<path d="M44.69 33.85C44.6324 37.8755 45.5884 41.8508 47.47 45.41C49.8625 43.9392 52.4709 42.8526 55.2 42.19L55.57 34.73C51.87 34.5 48.34 34.23 44.69 33.85Z" fill="#EF4135"/>
<path d="M61.35 20.54H60.88L61.07 27.78C61.081 27.7992 61.0971 27.8149 61.1166 27.8255C61.136 27.8361 61.1579 27.8411 61.18 27.84C64.95 28.31 68.56 28.84 72.18 29.12L72.23 28.69C72.3805 26.4149 72.2156 24.1299 71.74 21.9C71.5 20.64 71.17 19.41 70.81 18.17C67.7908 19.4222 64.603 20.2209 61.35 20.54Z" fill="#0054A4"/>
</g>
<defs>
<clipPath id="clip0">
<rect width="116.73" height="59.2" fill="white"/>
</clipPath>
</defs>
</svg>
